<svg width="499" height="499" viewBox="0 0 499 499" fill="none" xmlns="http://www.w3.org/2000/svg">
                <circle cx="249.5" cy="249.5" r="249.5" fill="#00FFF0" />
                <g clip-path="url(#clip0)">
                  <path
                    d="M153.377 141.652C177.141 141.652 196.405 123.33 196.405 100.727C196.405 78.1252 177.141 59.8025 153.377 59.8025C129.614 59.8025 110.35 78.1252 110.35 100.727C110.35 123.33 129.614 141.652 153.377 141.652Z"
                    fill="#3F3D56"
                  />
                  <path
                    d="M400.218 155.294C423.981 155.294 443.245 136.971 443.245 114.369C443.245 91.7669 423.981 73.4442 400.218 73.4442C376.455 73.4442 357.191 91.7669 357.191 114.369C357.191 136.971 376.455 155.294 400.218 155.294Z"
                    fill="#3F3D56"
                  />
                  <path
                    d="M400.973 72.0082C392.708 72.0083 384.618 74.2725 377.671 78.53C370.723 82.7876 365.212 88.8582 361.796 96.0162C369.162 89.7757 378.558 86.1323 388.412 85.6964C398.265 85.2604 407.977 88.0583 415.92 93.6215C423.863 99.1846 429.555 107.175 432.042 116.254C434.529 125.333 433.66 134.949 429.581 143.492C436.097 137.976 440.696 130.707 442.768 122.649C444.84 114.59 444.289 106.123 441.186 98.3695C438.083 90.6162 432.575 83.9431 425.393 79.2352C418.212 74.5272 409.695 72.0069 400.973 72.0082Z"
                    fill="#6C63FF"
                  />
                  <path
                    d="M152.623 58.3666C160.887 58.3667 168.977 60.6309 175.924 64.8884C182.872 69.1459 188.383 75.2166 191.799 82.3745C184.434 76.1341 175.037 72.4907 165.183 72.0547C155.33 71.6188 145.618 74.4167 137.675 79.9798C129.732 85.543 124.04 93.5333 121.553 102.612C119.066 111.691 119.935 121.308 124.014 129.85C117.499 124.335 112.9 117.066 110.827 109.007C108.755 100.949 109.307 92.4812 112.41 84.7279C115.513 76.9746 121.02 70.3015 128.202 65.5935C135.384 60.8856 143.9 58.3652 152.623 58.3666Z"
                    fill="#6C63FF"
                  />
                  <path
                    d="M277.928 304.634C277.946 325.533 271.446 345.967 259.25 363.351C247.054 380.735 229.71 394.287 209.414 402.293C189.117 410.298 166.78 412.397 145.229 408.324C123.678 404.251 103.881 394.189 88.3442 379.412C72.8073 364.634 62.2285 345.805 57.9463 325.306C53.664 304.808 55.871 283.563 64.2877 264.258C72.7045 244.953 86.9529 228.457 105.23 216.857C123.507 205.257 144.991 199.074 166.963 199.091C181.549 199.044 196.001 201.742 209.486 207.029C222.971 212.317 235.223 220.089 245.537 229.899C255.851 239.709 264.023 251.363 269.582 264.189C275.141 277.015 277.977 290.761 277.928 304.634Z"
                    fill="black"
                  />
                  <path
                    d="M277.93 304.634C277.951 319.742 274.55 334.678 267.958 348.424C248.958 348.182 230.239 344.024 213.091 336.238C195.943 328.451 180.774 317.221 168.629 303.32C156.484 289.42 147.653 273.181 142.743 255.721C137.834 238.261 136.962 219.996 140.19 202.185C156.544 198.335 173.604 198.074 190.08 201.423C206.555 204.771 222.014 211.641 235.285 221.512C248.557 231.383 259.293 243.996 266.681 258.397C274.07 272.799 277.916 288.61 277.93 304.634Z"
                    fill="#6C63FF"
                  />
                  <path
                    d="M269.626 332.635C342.167 332.635 400.973 276.703 400.973 207.707C400.973 138.71 342.167 82.7779 269.626 82.7779C197.086 82.7779 138.28 138.71 138.28 207.707C138.28 276.703 197.086 332.635 269.626 332.635Z"
                    fill="#241212"
                  />
                  <path
                    d="M301.545 211.98C308.348 203.293 318.494 197.525 329.761 195.941C341.027 194.357 352.494 197.086 361.648 203.53C366.735 197.034 369.681 189.248 370.114 181.158C370.546 173.069 368.445 165.039 364.076 158.086C359.707 151.133 353.268 145.57 345.572 142.1C337.877 138.63 329.273 137.41 320.848 138.595C312.424 139.779 304.558 143.315 298.247 148.754C291.937 154.193 287.465 161.29 285.398 169.148C283.331 177.006 283.762 185.271 286.637 192.895C289.511 200.52 294.7 207.162 301.545 211.98Z"
                    fill="white"
                  />
                  <path
                    d="M201.148 219.878C207.951 211.19 218.098 205.423 229.364 203.839C240.63 202.255 252.097 204.984 261.251 211.427C266.338 204.931 269.285 197.146 269.717 189.056C270.149 180.967 268.048 172.937 263.679 165.984C259.31 159.031 252.871 153.467 245.176 149.998C237.48 146.528 228.876 145.308 220.451 146.493C212.027 147.677 204.161 151.213 197.851 156.652C191.54 162.091 187.068 169.188 185.001 177.046C182.934 184.904 183.365 193.168 186.24 200.793C189.114 208.418 194.303 215.059 201.148 219.878Z"
                    fill="white"
                  />
                  <path
                    d="M229.619 194.065C238.374 194.065 245.471 187.315 245.471 178.987C245.471 170.66 238.374 163.91 229.619 163.91C220.864 163.91 213.767 170.66 213.767 178.987C213.767 187.315 220.864 194.065 229.619 194.065Z"
                    fill="#3F3D56"
                  />
                  <path
                    d="M332.28 182.577C341.035 182.577 348.132 175.827 348.132 167.5C348.132 159.173 341.035 152.422 332.28 152.422C323.525 152.422 316.428 159.173 316.428 167.5C316.428 175.827 323.525 182.577 332.28 182.577Z"
                    fill="#3F3D56"
                  />
                  <path
                    d="M279.44 219.912C284.026 219.912 287.743 216.376 287.743 212.015C287.743 207.653 284.026 204.117 279.44 204.117C274.854 204.117 271.136 207.653 271.136 212.015C271.136 216.376 274.854 219.912 279.44 219.912Z"
                    fill="#FF6584"
                  />
                  <path
                    d="M154.887 435.573V400.844H142.809V435.573C139.277 436.761 136.219 438.962 134.056 441.871C131.894 444.781 130.732 448.257 130.732 451.82V451.82H166.965V451.82C166.965 448.257 165.803 444.781 163.64 441.871C161.477 438.962 158.419 436.761 154.887 435.573Z"
                    fill="#3F3D56"
                  />
                  <path
                    d="M199.424 435.573V400.844H187.346V435.573C183.814 436.761 180.756 438.962 178.593 441.871C176.431 444.781 175.269 448.257 175.268 451.82V451.82H211.502V451.82C211.502 448.257 210.34 444.781 208.177 441.871C206.014 438.962 202.956 436.761 199.424 435.573Z"
                    fill="#3F3D56"
                  />
                  <path
                    d="M215.927 94.7587C210.455 86.3783 206.779 76.534 207.918 66.7283C209.057 56.9226 215.81 47.3544 225.752 44.5443C235.695 41.7342 248.011 47.5559 249.885 57.259C259.843 40.8826 275.595 28.4046 294.33 22.0516C303.02 19.1392 314.568 18.4788 319.592 25.8241C322.079 29.4594 322.345 34.4021 325.676 37.3638C330.898 42.0066 339.272 38.7365 346.408 39.1334C356.444 39.6914 364.522 48.5995 365.786 58.0848C367.05 67.5701 362.634 77.1024 356.114 84.3801C349.594 91.6577 341.113 97.0568 332.748 102.359"
                    fill="white"
                  />
                  <path
                    d="M293.879 240.932C294.419 240.389 294.977 239.862 295.56 239.36C295.818 239.138 296.08 238.92 296.346 238.707C296.512 238.574 296.68 238.442 296.849 238.313C297.142 238.089 297.234 238.034 296.88 238.285C298.163 237.371 299.515 236.548 300.924 235.822C301.573 235.49 302.233 235.18 302.905 234.891C303.063 234.823 303.222 234.758 303.381 234.691C302.669 234.992 303.227 234.753 303.41 234.683C303.813 234.529 304.219 234.383 304.628 234.244C306.145 233.729 307.697 233.314 309.275 233.003C310.002 232.859 310.733 232.747 311.466 232.636C311.959 232.561 310.844 232.702 311.342 232.653C311.559 232.631 311.775 232.604 311.993 232.582C312.427 232.539 312.862 232.504 313.298 232.475C314.868 232.373 316.443 232.368 318.013 232.459C318.798 232.505 319.579 232.581 320.36 232.669C319.572 232.58 320.474 232.689 320.751 232.732C321.181 232.799 321.609 232.874 322.037 232.956C323.571 233.25 325.082 233.644 326.56 234.134C326.928 234.256 327.295 234.385 327.658 234.52C327.86 234.595 328.061 234.673 328.262 234.75C328.16 234.711 327.6 234.47 328.167 234.715C328.878 235.022 329.582 235.338 330.27 235.686C331.682 236.411 333.037 237.232 334.324 238.143C334.715 238.417 333.883 237.796 334.254 238.095C334.42 238.229 334.593 238.356 334.76 238.488C335.028 238.702 335.292 238.919 335.551 239.142C336.216 239.711 336.852 240.309 337.465 240.928C338.025 241.493 338.563 242.076 339.08 242.678C339.073 242.669 339.663 243.365 339.349 242.99C339.086 242.675 339.458 243.127 339.517 243.202C339.83 243.6 340.133 244.005 340.427 244.415C341.387 245.757 342.254 247.156 343.023 248.604C343.388 249.29 343.733 249.984 344.058 250.688C344.129 250.843 344.376 251.413 344.108 250.793C344.181 250.961 344.253 251.129 344.325 251.298C344.503 251.72 344.674 252.146 344.839 252.573C346.028 255.713 346.94 258.942 347.566 262.227C347.73 263.061 347.88 263.897 348.017 264.736C348.078 265.11 348.137 265.485 348.193 265.86C348.191 265.85 348.322 266.774 348.254 266.276C348.194 265.832 348.298 266.611 348.309 266.694C348.538 268.443 348.719 270.197 348.865 271.953C349.153 275.399 349.306 278.853 349.417 282.307C349.696 291.07 349.935 299.835 350.193 308.598L351.776 362.277L353.359 415.957L353.556 422.62C353.556 423.477 353.914 424.299 354.551 424.905C355.188 425.511 356.052 425.851 356.953 425.851C357.853 425.851 358.717 425.511 359.354 424.905C359.992 424.299 360.349 423.477 360.349 422.62L358.723 367.46L357.107 312.671L356.294 285.091C356.076 277.706 355.763 270.329 354.568 263.018C352.368 249.554 345.974 235.557 332.306 229.443C319.54 223.733 303.741 225.057 292.556 233.36C291.318 234.277 290.154 235.28 289.075 236.363C288.438 236.969 288.08 237.791 288.08 238.647C288.08 239.504 288.438 240.326 289.075 240.932C289.712 241.538 290.576 241.878 291.477 241.878C292.378 241.878 293.242 241.538 293.879 240.932L293.879 240.932Z"
                    fill="white"
                  />
                  <path
                    d="M319.447 342.687C318.447 342.688 317.487 343.067 316.78 343.74C316.072 344.413 315.674 345.325 315.673 346.277L323.22 455.363C323.216 455.838 323.311 456.309 323.498 456.749C323.686 457.189 323.963 457.59 324.314 457.928C324.665 458.266 325.082 458.534 325.543 458.718C326.003 458.902 326.497 458.998 326.996 459H388.895C389.896 458.999 390.855 458.62 391.562 457.947C392.27 457.274 392.668 456.362 392.669 455.41L400.219 346.23C400.207 345.286 399.804 344.384 399.097 343.72C398.39 343.057 397.437 342.686 396.444 342.687H319.447Z"
                    fill="#E6E6E6"
                  />
                  <path
                    d="M325.423 348.072C324.906 348.072 324.395 348.173 323.921 348.369C323.447 348.565 323.02 348.851 322.667 349.21C322.314 349.569 322.042 349.993 321.868 350.456C321.695 350.919 321.623 351.411 321.657 351.902L328.598 450.265C328.664 451.173 329.09 452.023 329.788 452.644C330.487 453.266 331.407 453.613 332.363 453.615H383.528C384.484 453.613 385.404 453.266 386.103 452.644C386.801 452.023 387.227 451.173 387.293 450.265L394.234 351.902C394.268 351.411 394.196 350.919 394.023 350.456C393.849 349.993 393.577 349.569 393.224 349.21C392.871 348.851 392.444 348.565 391.97 348.369C391.496 348.173 390.985 348.072 390.468 348.072H325.423Z"
                    fill="#DCA778"
                  />
                  <path
                    d="M348.132 364.944C347.732 364.945 347.348 365.096 347.065 365.366C346.782 365.635 346.623 366 346.623 366.38V374.278C346.623 374.659 346.782 375.024 347.065 375.293C347.348 375.562 347.732 375.714 348.132 375.714H360.965C361.365 375.714 361.749 375.562 362.032 375.293C362.315 375.024 362.474 374.659 362.475 374.278V366.38C362.474 366 362.315 365.635 362.032 365.366C361.749 365.096 361.365 364.945 360.965 364.944H348.132Z"
                    fill="#E6E6E6"
                  />
                  <path
                    d="M362.475 385.766C362.074 385.766 361.691 385.918 361.408 386.187C361.125 386.456 360.965 386.821 360.965 387.202V395.1C360.965 395.48 361.125 395.845 361.408 396.115C361.691 396.384 362.074 396.535 362.475 396.536H375.307C375.708 396.535 376.091 396.384 376.374 396.115C376.657 395.845 376.817 395.48 376.817 395.1V387.202C376.817 386.821 376.657 386.456 376.374 386.187C376.091 385.918 375.708 385.766 375.307 385.766H362.475Z"
                    fill="#E6E6E6"
                  />
                  <path
                    d="M348.887 402.997C348.487 402.998 348.103 403.149 347.82 403.419C347.537 403.688 347.378 404.053 347.377 404.433V412.331C347.378 412.712 347.537 413.077 347.82 413.346C348.103 413.615 348.487 413.767 348.887 413.767H361.72C362.12 413.767 362.504 413.615 362.787 413.346C363.07 413.077 363.229 412.712 363.23 412.331V404.433C363.229 404.053 363.07 403.688 362.787 403.419C362.504 403.149 362.12 402.998 361.72 402.997H348.887Z"
                    fill="#E6E6E6"
                  />
                  <path
                    d="M330.51 386C330.109 386 329.726 386.152 329.443 386.421C329.16 386.69 329.001 387.055 329 387.436V395.334C329.001 395.714 329.16 396.079 329.443 396.349C329.726 396.618 330.109 396.769 330.51 396.77H343.342C343.743 396.769 344.126 396.618 344.409 396.349C344.692 396.079 344.852 395.714 344.852 395.334V387.436C344.852 387.055 344.692 386.69 344.409 386.421C344.126 386.152 343.743 386 343.342 386H330.51Z"
                    fill="#E6E6E6"
                  />
                  <path
                    d="M105.088 361.469C109.016 362.708 111.783 365.887 114.084 369.002C116.457 372.214 118.631 375.702 121.874 378.211C123.236 379.337 124.833 380.174 126.561 380.668C128.289 381.163 130.108 381.302 131.897 381.076C135.452 380.567 138.466 378.203 139.007 374.716C139.719 370.125 136.34 365.875 133.376 362.608L132.576 364.447C137.298 364.931 141.404 367.492 145.728 369.14C149.871 370.719 154.772 371.581 158.911 369.522C162.087 367.942 164.067 364.782 164.738 361.507C165.424 357.932 164.85 354.242 163.105 351.01C160.901 346.726 157.288 343.263 153.784 339.928L152.682 341.728C157.892 342.472 163.702 343.166 168.223 339.982C170.031 338.77 171.321 336.979 171.856 334.938C172.316 332.682 171.924 330.343 170.748 328.335C168.371 323.932 163.884 320.828 159.861 317.874C150.477 310.973 140.309 305.094 129.548 300.348C128.234 299.767 127.083 301.623 128.405 302.208C137.624 306.28 146.413 311.18 154.652 316.841C158.616 319.567 162.805 322.378 166.108 325.836C168.912 328.772 171.466 333.262 168.404 336.891C164.801 341.16 158.282 340.365 153.284 339.651C153.045 339.596 152.793 339.616 152.567 339.708C152.341 339.8 152.151 339.958 152.028 340.161C151.904 340.363 151.852 340.598 151.88 340.83C151.908 341.063 152.014 341.281 152.182 341.451C157.406 346.422 163.609 352.389 162.701 360.039C162.356 362.939 160.91 365.901 158.196 367.435C154.508 369.52 149.895 368.446 146.18 367.005C141.67 365.255 137.515 362.799 132.576 362.293C131.511 362.184 131.203 363.501 131.775 364.131C134.171 366.772 137.046 370.209 136.833 373.912C136.655 377.011 133.815 378.864 130.769 379.039C123.02 379.485 119.108 371.812 115.18 366.78C112.693 363.596 109.743 360.67 105.69 359.392C104.304 358.954 103.709 361.034 105.088 361.469H105.088Z"
                    fill="#6C63FF"
                  />
                  <ellipse cx="335" cy="448.5" rx="6" ry="5.5" fill="#241212" />
                  <ellipse cx="335" cy="448.5" rx="6" ry="5.5" fill="#241212" />
                  <ellipse cx="335" cy="448.5" rx="6" ry="5.5" fill="#241212" />
                  <ellipse cx="353" cy="438.5" rx="6" ry="5.5" fill="#241212" />
                  <ellipse cx="353" cy="438.5" rx="6" ry="5.5" fill="#241212" />
                  <ellipse cx="353" cy="438.5" rx="6" ry="5.5" fill="#241212" />
                  <ellipse cx="382" cy="448.5" rx="5" ry="5.5" fill="#241212" />
                  <ellipse cx="382" cy="448.5" rx="5" ry="5.5" fill="#241212" />
                  <ellipse cx="382" cy="448.5" rx="5" ry="5.5" fill="#241212" />
                  <ellipse cx="371" cy="448.5" rx="6" ry="5.5" fill="#241212" />
                  <ellipse cx="371" cy="448.5" rx="6" ry="5.5" fill="#241212" />
                  <ellipse cx="371" cy="448.5" rx="6" ry="5.5" fill="#241212" />
                  <ellipse cx="341" cy="438.5" rx="6" ry="5.5" fill="#241212" />
                  <ellipse cx="341" cy="438.5" rx="6" ry="5.5" fill="#241212" />
                  <ellipse cx="341" cy="438.5" rx="6" ry="5.5" fill="#241212" />
                  <ellipse cx="377" cy="438.5" rx="6" ry="5.5" fill="#241212" />
                  <ellipse cx="377" cy="438.5" rx="6" ry="5.5" fill="#241212" />
                  <ellipse cx="377" cy="438.5" rx="6" ry="5.5" fill="#241212" />
                  <ellipse cx="359" cy="448.5" rx="6" ry="5.5" fill="#241212" />
                  <ellipse cx="359" cy="448.5" rx="6" ry="5.5" fill="#241212" />
                  <ellipse cx="359" cy="448.5" rx="6" ry="5.5" fill="#241212" />
                  <ellipse cx="365" cy="438.5" rx="6" ry="5.5" fill="#241212" />
                  <ellipse cx="365" cy="438.5" rx="6" ry="5.5" fill="#241212" />
                  <ellipse cx="365" cy="438.5" rx="6" ry="5.5" fill="#241212" />
                  <ellipse cx="347" cy="448.5" rx="6" ry="5.5" fill="#241212" />
                  <ellipse cx="347" cy="448.5" rx="6" ry="5.5" fill="#241212" />
                  <ellipse cx="347" cy="448.5" rx="6" ry="5.5" fill="#241212" />
                </g>
                <defs>
                  <clipPath id="clip0">
                    <rect width="388" height="439" fill="white" transform="translate(56 20)" />
                  </clipPath>
                </defs>
              </svg>